<?xml version="1.0" standalone="no"?>
<!DOCTYPE svg PUBLIC "-//W3C//DTD SVG 20010904//EN"
 "http://www.w3.org/TR/2001/REC-SVG-20010904/DTD/svg10.dtd">
<svg version="1.0" xmlns="http://www.w3.org/2000/svg"
 width="512.000000pt" height="512.000000pt" viewBox="0 0 512.000000 512.000000"
 preserveAspectRatio="xMidYMid meet">
<metadata>
Created by potrace 1.11, written by Peter Selinger 2001-2013
</metadata>
<g transform="translate(0.000000,512.000000) scale(0.100000,-0.100000)"
fill="#000000" stroke="none">
<path d="M1209 5036 c-2 -2 -26 -6 -54 -10 -253 -31 -504 -154 -699 -344 -194
-189 -309 -413 -361 -702 -11 -61 -14 -325 -12 -1445 1 -753 6 -1381 9 -1395
4 -14 15 -58 24 -99 53 -240 200 -485 394 -654 141 -124 352 -232 531 -273
134 -31 192 -32 1519 -32 1504 -1 1422 -4 1645 71 381 129 690 462 791 852 43
164 43 156 40 1580 -1 748 -5 1376 -9 1395 -21 101 -39 177 -47 195 -89 225
-149 327 -265 454 -90 98 -165 161 -276 229 -89 54 -251 124 -318 137 -9 1
-34 8 -56 13 -22 6 -58 14 -80 18 -40 8 -2768 18 -2776 10z"/>
</g>
</svg>
