<?xml version="1.0" encoding="utf-8"?>
<!-- Generator: Adobe Illustrator 19.0.0, SVG Export Plug-In . SVG Version: 6.00 Build 0)  -->
<svg version="1.1" id="Layer_1" xmlns="http://www.w3.org/2000/svg" xmlns:xlink="http://www.w3.org/1999/xlink" x="0px" y="0px"
	 width="200px" height="58px" viewBox="0 0 200 58" style="enable-background:new 0 0 200 58;" xml:space="preserve">
<style type="text/css">
	.st0{fill:#FFFFFF;}
	.st1{fill:#E3E4E8;}
	.st2{fill:#033465;}
	.st3{fill:#828691;}
	.st4{fill:#F7F8FC;}
</style>
<g id="XMLID_86_">
	<path id="XMLID_16_" class="st0" d="M2.4,57.5c-1,0-1.9-0.8-1.9-1.9V2.4c0-1,0.8-1.9,1.9-1.9h195.2c1,0,1.9,0.8,1.9,1.9v53.2
		c0,1-0.8,1.9-1.9,1.9H2.4z"/>
	<path id="XMLID_13_" class="st1" d="M197.6,1c0.8,0,1.4,0.6,1.4,1.4v53.2c0,0.8-0.6,1.4-1.4,1.4H2.4C1.6,57,1,56.4,1,55.6V2.4
		C1,1.6,1.6,1,2.4,1H197.6 M197.6,0H2.4C1.1,0,0,1.1,0,2.4v53.2C0,56.9,1.1,58,2.4,58h195.2c1.3,0,2.4-1.1,2.4-2.4V2.4
		C200,1.1,198.9,0,197.6,0L197.6,0z"/>
</g>
<g id="XMLID_71_">
	<path id="XMLID_72_" class="st2" d="M49.4,37.6V20.2H52c0.6,0,7.8-0.9,7.8,8.8c0,4.9-1.9,8.5-7.3,8.5H49.4z M56.4,29
		c0-2.2-0.7-5.7-3.5-5.7v11.2C55.6,34.6,56.4,31.2,56.4,29z"/>
	<path id="XMLID_486_" class="st2" d="M73.2,28.9c0,6.5-3,8.9-6.1,8.9c-3.1,0-6.1-2.4-6.1-8.9c0-6.5,3-8.9,6.1-8.9
		C70.2,19.9,73.2,22.4,73.2,28.9z M67.1,34.7c2.3,0,2.4-4.4,2.4-5.8c0-1.5-0.2-5.8-2.4-5.8s-2.4,4.2-2.4,5.8
		C64.7,30.3,64.8,34.7,67.1,34.7z"/>
	<path id="XMLID_489_" class="st2" d="M77.5,20.2l1.5,8.3c0.2,1.2,0.3,2.5,0.4,3.7h0c0.2-1.2,0.3-2.5,0.5-3.7l1.7-8.3h2.7l2.2,12h0
		c0.1-1.2,0.1-2.4,0.3-3.6l1.4-8.3h3.6l-3.6,17.3h-3l-1.8-9.2c-0.1-1.1-0.3-2.1-0.5-3.2h0c-0.2,1.1-0.3,2.1-0.6,3.2l-2,9.2h-3
		L74,20.2H77.5z"/>
	<path id="XMLID_491_" class="st2" d="M96.6,20.2l4.3,10.5l0,0c-0.2-0.8-0.3-1.7-0.3-2.6v-7.8h3.4v17.3h-3.2l-4.2-10.5l0,0l0.2,1.7
		l0,0.7v8h-3.4V20.2H96.6z"/>
	<path id="XMLID_493_" class="st2" d="M109.9,20.2v14.1h3.6v3.2h-7V20.2H109.9z"/>
	<path id="XMLID_495_" class="st2" d="M126.6,28.9c0,6.5-3,8.9-6.1,8.9c-3.1,0-6.1-2.4-6.1-8.9c0-6.5,3-8.9,6.1-8.9
		C123.6,19.9,126.6,22.4,126.6,28.9z M120.5,34.7c2.3,0,2.4-4.4,2.4-5.8c0-1.5-0.2-5.8-2.4-5.8c-2.3,0-2.4,4.2-2.4,5.8
		C118.1,30.3,118.2,34.7,120.5,34.7z"/>
	<path id="XMLID_498_" class="st2" d="M135,20.2l4.2,17.3h-3.7l-0.6-2.9h-3.5l-0.6,2.9h-3.4l4-17.3H135z M133.5,27.3l-0.4-2.6h0
		l-0.4,2.6l-0.7,4.6h2.4L133.5,27.3z"/>
	<path id="XMLID_501_" class="st2" d="M140.5,37.6V20.2h2.6c0.6,0,7.8-0.9,7.8,8.8c0,4.9-1.9,8.5-7.3,8.5H140.5z M147.5,29
		c0-2.2-0.7-5.7-3.5-5.7v11.2C146.7,34.6,147.5,31.2,147.5,29z"/>
</g>
<g id="XMLID_85_">
	<path id="XMLID_137_" class="st3" d="M43.5,8.8h1l1.1,3.3c0.3,0.9,0.6,1.9,0.9,3c-0.1-0.6-0.2-1.2-0.2-1.7s-0.1-1-0.1-1.5V8.8h1.1
		v8.3h-1l-1.2-3.7c-0.1-0.3-0.2-0.7-0.3-1.1s-0.2-0.7-0.3-1.1c0-0.1,0-0.1,0-0.2c0-0.1,0-0.2-0.1-0.2c0,0.1,0,0.2,0,0.2
		c0,0.1,0,0.1,0,0.2l0.1,0.8l0.1,1c0,0.1,0,0.1,0,0.2s0,0.2,0,0.3l0.1,3.6h-1.1V8.8z"/>
	<path id="XMLID_505_" class="st3" d="M53.4,13.2c0,1.5-0.2,2.5-0.5,3.1s-0.9,0.9-1.6,0.9c-0.8,0-1.4-0.3-1.7-1
		c-0.3-0.6-0.5-1.8-0.5-3.5c0-1.5,0.2-2.5,0.5-3.1c0.3-0.6,0.9-0.9,1.7-0.9c0.7,0,1.2,0.2,1.5,0.7c0.2,0.3,0.4,0.8,0.5,1.4
		C53.3,11.3,53.4,12.1,53.4,13.2z M52.2,13.3c0-1.4-0.1-2.4-0.2-2.9c-0.1-0.5-0.4-0.7-0.8-0.7s-0.7,0.2-0.8,0.6
		c-0.1,0.4-0.2,1.3-0.2,2.6c0,1.2,0.1,2.1,0.2,2.5c0.1,0.4,0.4,0.7,0.8,0.7c0.4,0,0.6-0.2,0.8-0.6C52.2,15.2,52.2,14.4,52.2,13.3z"
		/>
	<path id="XMLID_508_" class="st3" d="M57.9,8.8h1.5c1.2,0,1.8,0.7,1.8,2.2c0,0.6-0.1,1-0.2,1.3s-0.4,0.5-0.8,0.6
		c0.4,0.2,0.8,0.4,0.9,0.7c0.2,0.3,0.3,0.7,0.3,1.2c0,1.5-0.7,2.3-2,2.3h-1.5V8.8z M58.9,12.5c0.4,0,0.7-0.1,0.9-0.3
		c0.2-0.2,0.3-0.6,0.3-1.1c0-0.9-0.3-1.3-1-1.3H59h0c0,0,0,0-0.1,0V12.5z M58.9,16.2c0.5,0,0.8-0.1,1-0.3c0.2-0.2,0.3-0.6,0.3-1.1
		c0-0.5-0.1-0.9-0.3-1.1c-0.2-0.2-0.5-0.3-0.9-0.3V16.2z"/>
	<path id="XMLID_512_" class="st3" d="M63,8.8h1.1v5.9c0,0.6,0.1,1,0.2,1.2c0.1,0.2,0.3,0.3,0.7,0.3s0.5-0.1,0.6-0.3
		c0.1-0.2,0.2-0.5,0.2-1.1v-6h1.1v6c0,0.9-0.1,1.5-0.4,1.8c-0.3,0.4-0.8,0.5-1.5,0.5c-0.7,0-1.3-0.2-1.6-0.7
		c-0.2-0.3-0.3-0.9-0.3-1.8V8.8z"/>
	<path id="XMLID_514_" class="st3" d="M68.6,8.8h1l1.1,3.3c0.3,0.9,0.6,1.9,0.9,3c-0.1-0.6-0.2-1.2-0.2-1.7s-0.1-1-0.1-1.5V8.8h1.1
		v8.3h-1l-1.2-3.7c-0.1-0.3-0.2-0.7-0.3-1.1c-0.1-0.4-0.2-0.7-0.3-1.1c0-0.1,0-0.1,0-0.2c0-0.1,0-0.2-0.1-0.2c0,0.1,0,0.2,0,0.2
		c0,0.1,0,0.1,0,0.2l0.1,0.8l0.1,1c0,0.1,0,0.1,0,0.2s0,0.2,0,0.3l0.1,3.6h-1.1V8.8z"/>
	<path id="XMLID_516_" class="st3" d="M74.3,8.8h1.4c0.4,0,0.8,0,1.1,0.1c0.3,0.1,0.5,0.2,0.7,0.5c0.3,0.3,0.5,0.8,0.7,1.3
		c0.1,0.5,0.2,1.3,0.2,2.3c0,0.9-0.1,1.7-0.2,2.2c-0.1,0.6-0.4,1-0.7,1.3c-0.4,0.4-1.1,0.5-2.2,0.5h-0.9V8.8z M75.4,16.2
		c0.7,0,1.1-0.2,1.4-0.6c0.2-0.4,0.4-1.2,0.4-2.4c0-1.3-0.1-2.2-0.3-2.6c-0.2-0.5-0.6-0.7-1.2-0.7h-0.1V16.2z"/>
	<path id="XMLID_519_" class="st3" d="M80,8.8h1.1v7.3h1.8v0.9H80V8.8z"/>
	<path id="XMLID_521_" class="st3" d="M84.2,8.8h3v0.9h-1.9v2.6h1.6v0.9h-1.6v2.8h1.9v0.9h-3V8.8z"/>
	<path id="XMLID_523_" class="st3" d="M91.5,9v1.1c-0.3-0.2-0.6-0.4-0.9-0.4c-0.3,0-0.5,0.1-0.7,0.3c-0.2,0.2-0.3,0.5-0.3,0.8
		c0,0.3,0.1,0.5,0.2,0.7c0.1,0.1,0.2,0.3,0.3,0.4c0.2,0.2,0.4,0.4,0.6,0.6c0.5,0.5,0.8,0.9,0.9,1.2c0.2,0.3,0.2,0.7,0.2,1.2
		c0,0.6-0.2,1.2-0.5,1.6c-0.4,0.4-0.8,0.6-1.4,0.6c-0.5,0-0.9-0.1-1.2-0.4v-1.1c0.4,0.3,0.8,0.4,1.1,0.4c0.3,0,0.5-0.1,0.7-0.3
		c0.2-0.2,0.3-0.5,0.3-0.8c0-0.3-0.1-0.6-0.2-0.8c-0.1-0.1-0.2-0.2-0.3-0.4c-0.1-0.1-0.3-0.3-0.5-0.5c-0.3-0.3-0.5-0.5-0.7-0.7
		s-0.3-0.4-0.4-0.6c-0.2-0.3-0.3-0.7-0.3-1.2c0-0.6,0.2-1.2,0.5-1.5c0.3-0.4,0.8-0.6,1.4-0.6C90.7,8.7,91.1,8.8,91.5,9z"/>
	<path id="XMLID_525_" class="st3" d="M93.6,16l0.9,0.3l-1.1,2.9L92.9,19L93.6,16z"/>
	<path id="XMLID_527_" class="st3" d="M101.8,9v1.1c-0.3-0.2-0.6-0.4-0.9-0.4c-0.3,0-0.5,0.1-0.7,0.3c-0.2,0.2-0.3,0.5-0.3,0.8
		c0,0.3,0.1,0.5,0.2,0.7c0.1,0.1,0.2,0.3,0.3,0.4s0.4,0.4,0.6,0.6c0.5,0.5,0.8,0.9,0.9,1.2c0.2,0.3,0.2,0.7,0.2,1.2
		c0,0.6-0.2,1.2-0.5,1.6c-0.4,0.4-0.8,0.6-1.4,0.6c-0.5,0-0.9-0.1-1.2-0.4v-1.1c0.4,0.3,0.8,0.4,1.1,0.4c0.3,0,0.5-0.1,0.7-0.3
		c0.2-0.2,0.3-0.5,0.3-0.8c0-0.3-0.1-0.6-0.2-0.8c-0.1-0.1-0.2-0.2-0.3-0.4c-0.1-0.1-0.3-0.3-0.5-0.5c-0.3-0.3-0.5-0.5-0.7-0.7
		c-0.2-0.2-0.3-0.4-0.4-0.6c-0.2-0.3-0.3-0.7-0.3-1.2c0-0.6,0.2-1.2,0.5-1.5c0.3-0.4,0.8-0.6,1.4-0.6C101,8.7,101.4,8.8,101.8,9z"/>
	<path id="XMLID_529_" class="st3" d="M105,8.8h0.9l1.8,8.3h-1.1l-0.3-1.6h-1.6l-0.3,1.6h-1.1L105,8.8z M106,14.6l-0.2-1.3
		c-0.2-0.9-0.3-1.9-0.4-2.9c0,0.5-0.1,1-0.2,1.5c-0.1,0.5-0.2,1.1-0.3,1.6l-0.2,1.1H106z"/>
	<path id="XMLID_532_" class="st3" d="M108.8,8.8h3v0.9h-1.9v2.6h1.7v0.9h-1.7v3.8h-1.1V8.8z"/>
	<path id="XMLID_534_" class="st3" d="M113.2,8.8h3v0.9h-1.9v2.6h1.6v0.9h-1.6v2.8h1.9v0.9h-3V8.8z"/>
	<path id="XMLID_536_" class="st3" d="M121.8,8.8h0.9l1.8,8.3h-1.1l-0.3-1.6h-1.6l-0.3,1.6H120L121.8,8.8z M122.8,14.6l-0.2-1.3
		c-0.2-0.9-0.3-1.9-0.4-2.9c-0.1,0.5-0.1,1-0.2,1.5c-0.1,0.5-0.2,1.1-0.3,1.6l-0.2,1.1H122.8z"/>
	<path id="XMLID_539_" class="st3" d="M125.6,8.8h1l1.1,3.3c0.3,0.9,0.6,1.9,0.9,3c-0.1-0.6-0.2-1.2-0.2-1.7s-0.1-1-0.1-1.5V8.8h1.1
		v8.3h-1l-1.2-3.7c-0.1-0.3-0.2-0.7-0.3-1.1c-0.1-0.4-0.2-0.7-0.3-1.1c0-0.1,0-0.1,0-0.2s0-0.2-0.1-0.2c0,0.1,0,0.2,0,0.2
		c0,0.1,0,0.1,0,0.2l0.1,0.8l0.1,1c0,0.1,0,0.1,0,0.2s0,0.2,0,0.3l0.1,3.6h-1.1V8.8z"/>
	<path id="XMLID_541_" class="st3" d="M131.3,8.8h1.4c0.4,0,0.8,0,1.1,0.1c0.3,0.1,0.5,0.2,0.7,0.5c0.3,0.3,0.5,0.8,0.7,1.3
		c0.1,0.5,0.2,1.3,0.2,2.3c0,0.9-0.1,1.7-0.2,2.2c-0.1,0.6-0.4,1-0.7,1.3c-0.4,0.4-1.1,0.5-2.2,0.5h-0.9V8.8z M132.4,16.2
		c0.7,0,1.1-0.2,1.4-0.6c0.2-0.4,0.4-1.2,0.4-2.4c0-1.3-0.1-2.2-0.3-2.6c-0.2-0.5-0.6-0.7-1.2-0.7h-0.1V16.2z"/>
	<path id="XMLID_544_" class="st3" d="M139.8,8.8h3v0.9h-1.9v2.6h1.7v0.9h-1.7v3.8h-1.1V8.8z"/>
	<path id="XMLID_546_" class="st3" d="M145.3,8.8h0.9l1.8,8.3h-1.1l-0.3-1.6h-1.6l-0.3,1.6h-1.1L145.3,8.8z M146.3,14.6l-0.2-1.3
		c-0.2-0.9-0.3-1.9-0.4-2.9c-0.1,0.5-0.1,1-0.2,1.5c-0.1,0.5-0.2,1.1-0.3,1.6l-0.2,1.1H146.3z"/>
	<path id="XMLID_549_" class="st3" d="M151.9,9v1.1c-0.3-0.2-0.6-0.4-0.9-0.4c-0.3,0-0.5,0.1-0.7,0.3c-0.2,0.2-0.3,0.5-0.3,0.8
		c0,0.3,0.1,0.5,0.2,0.7c0.1,0.1,0.2,0.3,0.3,0.4s0.4,0.4,0.6,0.6c0.5,0.5,0.8,0.9,0.9,1.2c0.2,0.3,0.2,0.7,0.2,1.2
		c0,0.6-0.2,1.2-0.5,1.6c-0.4,0.4-0.8,0.6-1.4,0.6c-0.5,0-0.9-0.1-1.2-0.4v-1.1c0.4,0.3,0.8,0.4,1.1,0.4c0.3,0,0.5-0.1,0.7-0.3
		c0.2-0.2,0.3-0.5,0.3-0.8c0-0.3-0.1-0.6-0.2-0.8c-0.1-0.1-0.2-0.2-0.3-0.4c-0.1-0.1-0.3-0.3-0.5-0.5c-0.3-0.3-0.5-0.5-0.7-0.7
		c-0.2-0.2-0.3-0.4-0.4-0.6c-0.2-0.3-0.3-0.7-0.3-1.2c0-0.6,0.2-1.2,0.5-1.5c0.3-0.4,0.8-0.6,1.4-0.6C151.1,8.7,151.5,8.8,151.9,9z"
		/>
	<path id="XMLID_551_" class="st3" d="M153.2,8.8h3.6v1h-1.3v7.3h-1.1V9.8h-1.3V8.8z"/>
</g>
<path id="XMLID_73_" class="st4" d="M197,57H3c-1.1,0-2-0.9-2-2V38h198v17C199,56.1,198.1,57,197,57z"/>
<g id="XMLID_104_">
	<path id="XMLID_179_" class="st2" d="M68.6,43.4h-2.6v4h2.4v1h-2.4v5.4h-1V42.4h3.6V43.4z"/>
	<path id="XMLID_459_" class="st2" d="M70.2,53.8V42.4h1.1c1.6,0,3.1,0.1,3.1,2.9c0,1.4-0.3,2.9-2.1,2.9l2.5,5.5h-1.1l-2.4-5.5h0
		v5.5H70.2z M71.2,47.4h0.4c1.5,0,1.7-0.5,1.7-2c0-1.8-0.5-2-1.9-2h-0.2V47.4z"/>
	<path id="XMLID_462_" class="st2" d="M81.1,48.1c0,2.1-0.2,5.8-2.8,5.8c-2.5,0-2.8-3.2-2.8-5.8c0-2.9,0.4-5.8,2.8-5.8
		C80.9,42.3,81.1,45.6,81.1,48.1z M76.6,48.1c0,2,0.1,4.8,1.7,4.8c1.6,0,1.7-2.8,1.7-4.8s-0.1-4.8-1.7-4.8
		C76.7,43.2,76.6,46.1,76.6,48.1z"/>
	<path id="XMLID_465_" class="st2" d="M89.8,53.8h-1l-0.8-8.3c0-0.4,0-0.7-0.1-1.1h-0.1c-0.1,0.8-0.1,1.5-0.3,2.2l-1.2,7.2h-0.9
		l-1.2-8.3c-0.1-0.4-0.1-0.7-0.1-1.1h0c0,0.7,0,1.5-0.1,2.2L83,53.8h-1l1.6-11.3h0.9l1.3,8.4c0.1,0.4,0.1,0.8,0.1,1.1h0
		c0.1-0.6,0.1-1.3,0.2-2l1.3-7.6h0.9L89.8,53.8z"/>
	<path id="XMLID_467_" class="st2" d="M97.7,43.4h-2.6v4h2.4v1h-2.4v5.4h-1.1V42.4h3.6V43.4z"/>
	<path id="XMLID_469_" class="st2" d="M104.5,48.1c0,2.1-0.2,5.8-2.8,5.8c-2.5,0-2.8-3.2-2.8-5.8c0-2.9,0.4-5.8,2.8-5.8
		C104.3,42.3,104.5,45.6,104.5,48.1z M100,48.1c0,2,0.1,4.8,1.7,4.8c1.6,0,1.7-2.8,1.7-4.8s-0.1-4.8-1.7-4.8
		C100.1,43.2,100,46.1,100,48.1z"/>
	<path id="XMLID_472_" class="st2" d="M109.9,44.2c-0.5-0.5-0.9-0.9-1.7-0.9c-1,0-1.6,0.9-1.6,1.8c0,1.3,1,1.9,1.9,2.6
		c1,0.7,1.9,1.4,1.9,3c0,1.6-1.1,3.2-2.8,3.2c-0.6,0-1.3-0.2-1.8-0.6V52c0.5,0.5,1.1,0.9,1.8,0.9c1.1,0,1.7-1,1.7-2
		c0-1.3-1-1.9-1.9-2.6c-1-0.7-1.9-1.4-1.9-3c0-1.5,0.9-3,2.6-3c0.7,0,1.2,0.2,1.8,0.6V44.2z"/>
	<path id="XMLID_474_" class="st2" d="M115.7,44.2c-0.4-0.5-0.9-0.9-1.7-0.9c-1.1,0-1.6,0.9-1.6,1.8c0,1.3,1,1.9,1.9,2.6
		c1,0.7,1.9,1.4,1.9,3c0,1.6-1.1,3.2-2.8,3.2c-0.6,0-1.3-0.2-1.8-0.6V52c0.5,0.5,1.1,0.9,1.8,0.9c1.1,0,1.7-1,1.7-2
		c0-1.3-1-1.9-1.9-2.6c-1-0.7-1.9-1.4-1.9-3c0-1.5,0.9-3,2.6-3c0.7,0,1.2,0.2,1.8,0.6V44.2z"/>
	<path id="XMLID_476_" class="st2" d="M122.3,53.8h-1v-5.8h-2.6v5.8h-1V42.4h1V47h2.6v-4.5h1V53.8z"/>
	<path id="XMLID_478_" class="st2" d="M128.8,50.2c0,2.1-0.2,3.7-2.4,3.7c-2.3,0-2.4-1.7-2.4-3.7v-7.7h1.1v7.7
		c0,1.9,0.1,2.8,1.3,2.8c1.2,0,1.3-0.9,1.3-2.8v-7.7h1V50.2z"/>
	<path id="XMLID_480_" class="st2" d="M132,42.4c1.5,0,2.7,0.2,2.7,2.8c0,1.1-0.2,2.1-1.3,2.7c1.4,0.4,1.6,1.5,1.6,2.7
		c0,2.4-0.8,3.1-3.1,3.1h-1.4V42.4H132z M131.6,43.3v4.1h0.3c0.9,0,1.8,0.2,1.8-2.1c0-1.8-0.4-2-1.8-2H131.6z M131.6,48.3v4.5h0.3
		c1.6,0,2-0.5,2-2.1c0-1.9-0.7-2.4-2-2.4H131.6z"/>
</g>
</svg>
